<svg xmlns="http://www.w3.org/2000/svg" viewBox="0 0 89.71 62.8">
    <defs>
        <style>.cls-1{fill:#fff;}.cls-2{fill:#ce0e2d;}</style>
    </defs>
    <title>Asset 11</title>
    <g id="Layer_2" data-name="Layer 2">
        <g id="Layer_1-2" data-name="Layer 1">
            <path class="cls-1"
                d="M70.2,40.27c-7.42,3.48-13.32,5.56-21.71.62C42.66,37.47,36.37,37.16,29.8,40a29.86,29.86,0,0,0-8,5.12c0,1,0,2-.09,3.09a28.3,28.3,0,0,1,6.79-5.11,20.37,20.37,0,0,1,20.54.5c8.44,4.84,13.63,2.86,21.18-1a19.3,19.3,0,0,1,17.91-.28,10.6,10.6,0,0,0-.62-2.81A21.75,21.75,0,0,0,70.2,40.27Z" />
            <path class="cls-1"
                d="M44.69,17.54,46,24c2.49.05,3.75-1.27,3.48-3.22C49.12,17.94,46.52,17.54,44.69,17.54Z" />
            <path class="cls-1"
                d="M10.89,10C14.24,8.18,29.39.8,41.05,5.81l1.71.75c5.92,2.59,12,5.28,17.85,2.45C67,5.88,71.39,6.51,73.91,7.59a11,11,0,0,1,1.14.58,8.66,8.66,0,0,0-3.13-2.7c-3-1.48-6.74-1.15-11.17,1-5.28,2.55-10,.63-16.57-2C43,4,41.82,3.47,40.54,3,29-1.48,13.21,5.58,8.7,7.82A24.46,24.46,0,0,1,10.89,10Z" />
            <path class="cls-1" d="M24.32,62.8,6.66,8.4A4.55,4.55,0,0,1,5,8.94L22.32,62.32l.15.48Z" />
            <path class="cls-1"
                d="M61.28,10.39a13.57,13.57,0,0,1-6,1.35c-4.52,0-9-2-13.14-3.78l-1.69-.74c-10.72-4.61-24.79,2-28.54,3.94a36.62,36.62,0,0,1,3.75,5.6c2.85,5.21,6,13.77,6.16,26.31a32.1,32.1,0,0,1,7.37-4.5c7-3,13.89-2.64,20.08,1,7.76,4.57,13.07,2.69,20.28-.69a23.46,23.46,0,0,1,17-1.38s0-.07-.07-.1c-3.5-5.59-9.06-21.65-9.86-25.69l0-.15C76,10.72,71.79,5.28,61.28,10.39ZM39,28.07c-1.31,6.23-9.35,5.86-13,2.24l3.33-3c4.22,3.52,6.76-1.68,3.12-2.66C26.23,23,23.8,20,23.8,16.38c0-2.61,2.8-5.39,5.95-5.39a7.12,7.12,0,0,1,6.89,4.36l-3.53,1.46C30.88,13,27.16,15.36,28.51,18c.84,1.66,3.41,2,4.54,2.49C35.12,21.31,40,23.08,39,28.07Zm7.82-.43,1.41,6.92-4.48-1L39.5,13.37c5.19.4,12.6.45,13.77,6.71C54,24.11,52.07,27.6,46.78,27.64ZM59.6,35.56,54.55,15.25a22.23,22.23,0,0,0,2.5-.08,5.83,5.83,0,0,0,1.74-.41l5,20.16C63,35.33,60.91,36,59.6,35.56ZM76.31,28l1,3.84c-3.83-.13-7.41,1.25-10.43,2.38L61.81,14.41l3.9-1L70.1,28.88A19.15,19.15,0,0,1,76.31,28Z" />
            <path class="cls-1" d="M4.48,7.43A2.95,2.95,0,1,0,1.53,4.48,2.95,2.95,0,0,0,4.48,7.43Z" />
            <path class="cls-2"
                d="M0,4.48A4.48,4.48,0,0,0,3.33,8.81l17.53,54h1.61l-.15-.48L5,8.94A4.55,4.55,0,0,0,6.66,8.4L24.32,62.8h1.62L21.88,50.29a26.87,26.87,0,0,1,7.4-5.88c6.27-3.31,12.67-3.14,19,.5,9.09,5.22,14.86,3,22.64-1A18.24,18.24,0,0,1,82.3,42l2.5,8.29.82-.42a7.26,7.26,0,0,0,3.79-4.61,11.21,11.21,0,0,0-1.61-8.64c-3.35-5.34-8.89-21.32-9.65-25.16A10.79,10.79,0,0,0,72.6,4.1c-2.35-1.18-6.44-2-12.52,1-4.66,2.26-8.9.54-15.32-2.07-1.17-.47-2.38-1-3.67-1.46C29.49-2.94,14,3.55,8.65,6.13A4.48,4.48,0,1,0,0,4.48Zm20.28,40.9L8.79,10c.39.38.83.84,1.3,1.38a.52.52,0,0,0,.1.11,34.5,34.5,0,0,1,4.33,6.4C17.35,23.2,20.5,32.13,20.28,45.38Zm67.65-.57A5.62,5.62,0,0,1,85.72,48L84,42.34a18.83,18.83,0,0,1,3.67,1.46l.4.2A6.83,6.83,0,0,1,87.93,44.81Zm.22-2.5a19.3,19.3,0,0,0-17.91.28c-7.55,3.85-12.74,5.83-21.18,1a20.37,20.37,0,0,0-20.54-.5,28.3,28.3,0,0,0-6.79,5.11c.05-1.06.08-2.08.09-3.09a29.86,29.86,0,0,1,8-5.12c6.57-2.82,12.86-2.51,18.69.91,8.39,4.94,14.29,2.86,21.71-.62a21.75,21.75,0,0,1,17.33-.77A10.6,10.6,0,0,1,88.15,42.31ZM76.61,11.56l0,.15c.8,4,6.36,20.1,9.86,25.69,0,0,0,.07.07.1a23.46,23.46,0,0,0-17,1.38c-7.21,3.38-12.52,5.26-20.28.69-6.19-3.64-13.13-4-20.08-1a32.1,32.1,0,0,0-7.37,4.5c-.16-12.54-3.31-21.1-6.16-26.31a36.62,36.62,0,0,0-3.75-5.6c3.75-1.95,17.82-8.55,28.54-3.94L42.14,8c4.12,1.81,8.62,3.78,13.14,3.78a13.57,13.57,0,0,0,6-1.35C71.79,5.28,76,10.72,76.61,11.56ZM40.54,3c1.28.5,2.48,1,3.64,1.46,6.56,2.66,11.29,4.58,16.57,2,4.43-2.14,8.19-2.47,11.17-1a8.66,8.66,0,0,1,3.13,2.7,11,11,0,0,0-1.14-.58C71.39,6.51,67,5.88,60.61,9c-5.82,2.83-11.93.14-17.85-2.45l-1.71-.75C29.39.8,14.24,8.18,10.89,10A24.46,24.46,0,0,0,8.7,7.82C13.21,5.58,29-1.48,40.54,3ZM4.48,1.53a2.95,2.95,0,1,1-2.95,3A3,3,0,0,1,4.48,1.53Z" />
            <path class="cls-2"
                d="M33.05,20.48c-1.13-.45-3.7-.83-4.54-2.49-1.35-2.63,2.37-5,4.6-1.18l3.53-1.46A7.12,7.12,0,0,0,29.75,11c-3.15,0-5.95,2.78-5.95,5.39,0,3.61,2.43,6.61,8.61,8.28,3.64,1,1.1,6.18-3.12,2.66l-3.33,3c3.65,3.62,11.69,4,13-2.24C40,23.08,35.12,21.31,33.05,20.48Z" />
            <path class="cls-2"
                d="M57.05,15.17a22.23,22.23,0,0,1-2.5.08L59.6,35.56c1.31.45,3.37-.23,4.16-.64l-5-20.16A5.83,5.83,0,0,1,57.05,15.17Z" />
            <path class="cls-2"
                d="M61.81,14.41,66.9,34.2c3-1.13,6.6-2.51,10.43-2.38l-1-3.84a19.15,19.15,0,0,0-6.21.9L65.71,13.37Z" />
            <path class="cls-2"
                d="M39.5,13.37l4.21,20.19,4.48,1-1.41-6.92c5.29,0,7.25-3.53,6.49-7.56C52.1,13.82,44.69,13.77,39.5,13.37ZM46,24l-1.35-6.43c1.83,0,4.43.4,4.83,3.21C49.79,22.7,48.53,24,46,24Z" />
            <path class="cls-1"
                d="M84,42.34,85.72,48a5.62,5.62,0,0,0,2.21-3.17,6.83,6.83,0,0,0,.16-.81l-.4-.2A18.83,18.83,0,0,0,84,42.34Z" />
        </g>
    </g>
</svg>